<?xml version="1.0" encoding="utf-8"?>
<!-- Generator: Adobe Illustrator 27.2.0, SVG Export Plug-In . SVG Version: 6.00 Build 0)  -->
<svg version="1.1" id="Слой_1" xmlns="http://www.w3.org/2000/svg" xmlns:xlink="http://www.w3.org/1999/xlink" x="0px" y="0px"
	 viewBox="0 0 1000 200" style="enable-background:new 0 0 1000 200;" xml:space="preserve">
<style type="text/css">
	.st0{fill:#575555;}
	.st1{fill:#010202;}
	.st2{fill:#FFFFFF;}
	.st3{font-family:'ALoveofThunder';}
	.st4{font-size:112.0104px;}
	.st5{fill:#231F20;}
</style>
<g id="red">
	<rect class="st0" width="1000" height="199.6"/>
	<g>
		<g>
			<path class="st1" d="M81.76,145.64c-0.53-0.69-1.6-0.68-1.89,0.25c-0.92,2.98-0.34,6.41-0.16,9.49c0.21,3.6,0.45,7.21,0.6,10.81
				c-1.91,0.48-3.87,1.16-5.36,2.29c-0.45,0.34-0.66,1.2,0,1.49c2.63,1.16,5.87,0.78,8.63,0.23c1.37-0.27,1.82-1.4,1.62-2.45
				c0.2-0.36,0.31-0.79,0.29-1.31C85.2,160.28,85.7,150.75,81.76,145.64z"/>
			<path class="st1" d="M113.84,166.35c-0.87-0.29-1.74-0.52-2.58-0.91c-0.75-0.35-1.51-0.48-2.3-0.56
				c0.13-3.42-0.36-7.01-0.57-10.37c-0.18-2.98,0.12-5.92-1.79-8.33c-0.35-0.44-1.22-0.44-1.57,0c-1.92,2.42-1.59,5.34-1.69,8.33
				c-0.14,4.11-0.22,8.94,1.23,12.84c0.07,0.2,0.18,0.4,0.3,0.59c0.2,1.36,1.36,2.21,2.72,2.34c2.26,0.22,4.13-0.47,6.25-1.19
				C115.19,168.62,115.19,166.8,113.84,166.35z"/>
		</g>
		<path class="st1" d="M144.21,29.7c-3.59-2.25-7.11,4.93-7.83,6.99c-6.41,18.28-17.89,33.11-22.58,37.93
			c-3.65,3.75,17.09,21.35,21.48,12.16c3.34-7,11.51-21.3,13.38-43.93C149.04,38.27,148.51,32.39,144.21,29.7z"/>
		<path class="st1" d="M71.05,76.75c-11.5-9.73-20.41-34.31-24.99-40.87c-1.76-2.53-10.35-8.8-11.32,9.24
			C34,58.78,37.57,71.86,44,83.91c1.44,2.7,3.42,5.73,6.07,7.33C55.46,94.48,74.99,80.08,71.05,76.75z"/>
		<path class="st2" d="M145.03,92c-7.68-13.94-24.33-18.89-39.01-20.82c-16.98-2.23-36.13-0.38-50.95,8.74
			c-4.1,2.52-7.71,5.62-10.63,9.13c-0.53,0.57-1.04,1.16-1.54,1.77c-7.03,8.66-9.46,20.21-5.8,30.78
			c1.99,5.76,5.68,10.71,10.17,14.83c-0.28,1.78-0.48,3.68,0.32,5.3c0.19,0.38,0.8,0.91,1.28,0.91c0.95,0,1.87-2.13,2.06-0.02
			c0.08,0.81,0.25,3.85,1.77,3.6c0.69-0.12,0.91-0.75,1.23-1.32c0.45-0.8,0.17-0.76,0.53,0.02c0.28,0.59,0.56,1.17,0.87,1.74
			c0.32,0.59,1.32,2.39,2.31,1.85c1.48-0.82,0.93-2.93,0.56-4.32c0.46,0.25,0.91,0.5,1.37,0.74c18.94,9.83,45.22,8.15,64.28-0.37
			c0.25-0.11,0.49-0.23,0.73-0.35c-0.01,0.07-0.02,0.13-0.03,0.2c-0.11,0.95-0.65,4.41,1.29,4.12c1.58-0.23,1.89-3.01,2.32-4.18
			c0.78-2.13,1.1,0.39,1.28,1.23c0.15,0.71,0.9,0.93,1.53,0.76c0.78-0.22,1.03-1.51,1.21-2.14c0.19-0.65,0.35-1.31,0.51-1.97
			c0.06-0.26,0.12-0.52,0.18-0.77c0.03-0.11,1.12-2.97,1.67-1.06c0.54,1.86,1.93,1.2,2.87-0.23c1.22-1.85,1.07-4.32,1.19-6.59
			C148.59,122.24,152.75,106.02,145.03,92z"/>
		<g>
			<path class="st2" d="M45.71,78.21c2.41-1.74,4.67-3.48,7.32-4.86c2.58-1.34,5.37-2.15,7.94-3.51c0.18-0.09,0.05-0.33-0.13-0.3
				c-5.44,0.89-12.07,3.87-15.3,8.51C45.48,78.14,45.61,78.28,45.71,78.21L45.71,78.21z"/>
		</g>
		<g>
			<path class="st2" d="M44.39,68.72c1.62-0.93,3.21-1.9,4.9-2.7c2-0.94,4.07-1.54,5.92-2.74c0.15-0.1,0.1-0.37-0.1-0.35
				c-3.86,0.28-8.45,2.56-10.84,5.64C44.2,68.65,44.28,68.78,44.39,68.72L44.39,68.72z"/>
		</g>
		<g>
			<path class="st2" d="M42.84,59.84c1.32-0.66,2.56-1.4,3.94-1.95c1.34-0.53,2.67-0.8,3.94-1.48c0.14-0.08,0.06-0.26-0.08-0.28
				c-2.75-0.29-6.34,1.25-8.02,3.49C42.52,59.76,42.71,59.9,42.84,59.84L42.84,59.84z"/>
		</g>
		<g>
			<path class="st2" d="M41.25,51.66c0.82-0.51,1.66-0.97,2.53-1.4c0.9-0.45,2.02-0.62,2.64-1.46c0.14-0.19-0.06-0.38-0.23-0.41
				c-1.01-0.13-2.03,0.57-2.9,1.02c-0.92,0.47-1.78,1.1-2.2,2.08C41.03,51.6,41.13,51.74,41.25,51.66L41.25,51.66z"/>
		</g>
		<g>
			<path class="st2" d="M41.23,45.6c1.05-0.66,2.37-0.69,3.46-1.24c0.11-0.06,0.12-0.26,0-0.31c-0.68-0.3-1.32-0.17-2,0.07
				c-0.74,0.27-1.15,0.73-1.59,1.35C41.04,45.55,41.15,45.65,41.23,45.6L41.23,45.6z"/>
		</g>
		<g>
			<path class="st2" d="M122.89,70.02c1.82,0.7,3.71,1.16,5.54,1.83c1.99,0.73,3.89,2.2,5.98,2.54c0.24,0.04,0.38-0.21,0.23-0.4
				c-2.32-2.93-8.2-4.14-11.73-4.11C122.82,69.88,122.82,69.99,122.89,70.02L122.89,70.02z"/>
		</g>
		<g>
			<path class="st2" d="M127.59,64.62c1.98,0.29,3.74,0.69,5.6,1.42c1.75,0.68,3.56,2.15,5.48,2.05c0.23-0.01,0.31-0.25,0.17-0.42
				c-1.23-1.48-3.57-2.12-5.33-2.82c-1.83-0.72-4-1.02-5.93-0.62C127.4,64.28,127.39,64.6,127.59,64.62L127.59,64.62z"/>
		</g>
		<g>
			<path class="st2" d="M132.04,60.86c0.98,0.58,2.16,0.84,3.24,1.17c1.17,0.36,2.42,1.29,3.66,1.27c0.13,0,0.21-0.12,0.18-0.24
				c-0.27-1.23-1.72-1.61-2.77-1.92c-1.32-0.4-2.87-0.6-4.24-0.51C131.99,60.64,131.93,60.8,132.04,60.86L132.04,60.86z"/>
		</g>
		<g>
			<path class="st2" d="M134.18,54.3c1.76,0.27,3.4,0.68,5.07,1.31c1.29,0.49,2.56,1.69,3.97,1.46c0.18-0.03,0.22-0.25,0.16-0.39
				c-0.58-1.32-2.52-1.78-3.79-2.28c-1.72-0.67-3.62-0.79-5.4-0.32C134.08,54.1,134.06,54.28,134.18,54.3L134.18,54.3z"/>
		</g>
		<g>
			<path class="st2" d="M137.86,51.14c1.58,0.3,3.45,1.23,5.07,0.85c0.13-0.03,0.16-0.2,0.08-0.29c-1.2-1.35-3.57-1.03-5.14-0.77
				C137.76,50.95,137.76,51.12,137.86,51.14L137.86,51.14z"/>
		</g>
		<g>
			<path class="st2" d="M139.2,41.97c0.89,0.09,1.79,0.31,2.66,0.48c0.43,0.08,0.84,0.23,1.27,0.33c0.34,0.08,0.71-0.02,1.06,0.02
				c0.15,0.02,0.22-0.2,0.12-0.29c-0.38-0.36-0.56-0.67-1.05-0.88c-0.44-0.19-0.95-0.26-1.42-0.34c-0.96-0.15-1.81,0.07-2.68,0.42
				C139.03,41.76,139.05,41.95,139.2,41.97L139.2,41.97z"/>
		</g>
		<g>
			<path class="st1" d="M47.84,99.84c0.34-0.68,0.59-1.4,0.89-2.1c0.04-0.09-0.07-0.19-0.14-0.11c-0.53,0.59-0.84,1.37-0.89,2.17
				C47.69,99.88,47.81,99.91,47.84,99.84z"/>
			<path class="st1" d="M130.47,122.49c-0.59,0.41-1.35,0.65-1.88,1.11c-0.03,0.03,0,0.07,0.03,0.07c0.63,0.05,1.31-0.41,1.82-0.73
				c0.71-0.45,1.36-0.99,1.9-1.63c0.04-0.05-0.01-0.14-0.07-0.1C131.65,121.6,131.08,122.06,130.47,122.49z"/>
			<path class="st1" d="M85.34,118.7c4.64-6.5,5.56-15.3-0.7-22.63c-5.93-6.94-16.39-10.57-25.03-6.53c-3.35,1.57-6.07,4-8.04,6.93
				c-3.85,4.77-5.25,11.31-3.51,17.67c1.14,4.18,3.73,7.48,7.06,9.83c2.32,2.04,5.14,3.48,8.39,3.99c1.52,0.24,3.02,0.24,4.48,0.07
				c4.03-0.04,7.86-1.32,11.13-3.42c-7.33,7.11-16.58,5.48-25.01,1.59c-0.06-0.03-0.14,0.05-0.08,0.1
				c7.76,6.24,17.59,5.74,25.33-0.26C81.76,124.19,83.82,121.61,85.34,118.7z M82.03,120.36c4.73-6.1,5.5-13.33,2.87-20.47
				c-0.02-0.05,0.05-0.07,0.08-0.03c4.2,5.74,2.63,16.18-2.73,20.73C82.1,120.72,81.91,120.52,82.03,120.36z M63.63,90.83
				c0.11,0,0.18,0.18,0.06,0.23c-2.38,1.01-4.83,1.76-6.84,3.46c-2.22,1.87-3.84,4.16-4.82,6.89c-0.06,0.17-0.3,0.1-0.27-0.07
				C52.73,96.08,58.1,90.88,63.63,90.83z M71.75,125.25c-7.63,2.42-18.99-1.65-21.1-10.01c-0.03-0.12,0.13-0.19,0.19-0.08
				c4.75,7.79,12.15,9.86,20.87,9.86C71.85,125.03,71.87,125.21,71.75,125.25z M74.85,124.64c-0.27,0.5-1.36,0.69-1.85,0.45
				c-0.12-0.06-0.11-0.25,0-0.31c0.31-0.17,0.68-0.17,1.02-0.27c0.29-0.09,0.51-0.15,0.79-0.02
				C74.86,124.52,74.87,124.6,74.85,124.64z"/>
			<path class="st1" d="M86.24,120.08c-1.07,2.12-2.24,4.11-3.92,5.82c-1.78,1.82-3.98,2.82-6.18,4c-0.04,0.02-0.01,0.08,0.03,0.07
				c4.74-1.06,8.85-5.24,10.24-9.82C86.43,120.05,86.28,119.99,86.24,120.08z"/>
			<path class="st1" d="M47.07,117.24c-1.36-2.91-1.6-5.88-2.09-9c-0.01-0.07-0.11-0.04-0.11,0.02c-0.74,6.06,2.69,13.5,7.75,16.87
				c0.11,0.07,0.22-0.09,0.13-0.17C50.48,122.58,48.48,120.25,47.07,117.24z"/>
			<path class="st1" d="M119.17,128.05c0.12-0.01,0.12-0.17,0-0.18c-5.59-0.61-10.35-0.94-15.22-4.02
				c-0.04-0.03-0.09,0.03-0.05,0.07C107.38,127.71,114.32,128.52,119.17,128.05z"/>
			<path class="st1" d="M131.97,92.48c-13.39-16.75-40.74-3.2-35.29,17.44c0.32,1.21,0.75,2.33,1.25,3.37
				c1.41,5.17,4.88,9.61,10.4,11.53c5.72,1.98,13.75,2.5,19.2-0.59c0.09-0.05,0.03-0.2-0.07-0.17c-4.86,1.68-10.72,1.53-15.63,0.29
				c-2.74-0.69-4.89-1.86-6.61-3.37c1.48,0.83,3.06,1.47,4.7,1.9c0.05,0.02,0.1,0.04,0.15,0.06c8.01,2.92,16.43,1.25,22.29-5.02
				C139.26,110.53,137.87,99.86,131.97,92.48z M100.24,96.2c-0.09,0.1-0.23-0.03-0.18-0.14c2.39-5.08,8.7-8.98,14.29-8.93
				c0.16,0,0.19,0.23,0.04,0.27c-2.92,0.91-5.88,1.5-8.46,3.27C103.67,92.23,102.03,94.18,100.24,96.2z M121.65,121.72
				c-5.51,1.46-13.78,0.83-17.7-3.82c-0.06-0.07,0.02-0.18,0.1-0.13c5.73,3.57,11.03,3.67,17.57,3.72
				C121.75,121.5,121.77,121.69,121.65,121.72z M129.74,118.47c-0.11,0.08-0.22-0.09-0.14-0.18c4.67-5.39,5.45-10.53,5.15-17.44
				c-0.01-0.11,0.16-0.13,0.19-0.03C136.64,106.84,135.13,114.78,129.74,118.47z"/>
			<path class="st1" d="M49.04,96.49c2.57-4.24,6.32-7.2,10.94-8.95c5.36-2.03,10.25-1.2,15.54,0.39c0.1,0.03,0.14-0.1,0.07-0.16
				c-8.15-5.69-23.07-0.27-26.62,8.69C48.94,96.51,49.01,96.53,49.04,96.49z"/>
			<path class="st1" d="M131.21,87.8c-0.09-0.04-0.21,0.08-0.12,0.15c6.88,5.92,9.59,15.38,6.95,24.07
				c-0.04,0.14,0.17,0.23,0.24,0.1C142.35,104.96,139.04,91.44,131.21,87.8z"/>
			<path class="st1" d="M137.58,113.42c-0.27,0.56-0.54,1.12-0.87,1.65c-0.37,0.59-0.86,1.09-1.23,1.68
				c-0.04,0.06,0.04,0.14,0.1,0.1c1.06-0.7,1.95-2.12,2.14-3.37C137.74,113.4,137.62,113.33,137.58,113.42z"/>
			<path class="st1" d="M102.37,88.2c-0.05,0.07,0.06,0.14,0.11,0.08c5.21-5.21,11.6-5.94,18.49-4.3c0.14,0.03,0.24-0.17,0.1-0.24
				C115.28,80.59,106.16,82.92,102.37,88.2z"/>
			<path class="st1" d="M122.12,134.42c-9.61-0.94-19.4-0.72-29.05-0.49c-7.88,0.19-17.34-0.28-24.88,2.33
				c-0.19,0.07-0.17,0.38,0.05,0.37c2.15-0.13,4.32-0.23,6.48-0.32c-0.03,0.45,0.05,0.94,0.14,1.35c0.17,0.83,0.47,1.65,0.76,2.44
				c0.25,0.66,1.35,1.04,1.7,0.22c0.59-1.33,0.78-2.72,1.04-4.14c4.9-0.16,9.81-0.26,14.7-0.42c6.03-0.2,12.08,0.03,18.12,0
				c-0.03,1.29,0.23,2.66,0.43,3.91c0.09,0.57,0.97,0.79,1.33,0.35c0.99-1.21,1.26-2.78,1.43-4.3c2.58-0.06,5.16-0.17,7.73-0.42
				C122.69,135.25,122.69,134.47,122.12,134.42z"/>
			<path class="st1" d="M94.61,86.17c0.58-1.15,0.93-2.27,1.29-3.51c0.38-1.32,0.84-2.47,0.54-3.84c-0.05-0.24-0.35-0.22-0.47-0.06
				c-0.82,1.06-1.03,2.27-1.37,3.54c-0.36,1.35-0.56,2.45-0.35,3.82C94.28,86.29,94.54,86.31,94.61,86.17z"/>
			<path class="st1" d="M86.95,86.73c0.09,0.08,0.29,0.07,0.31-0.08c0.18-1.31-0.27-2.69-0.44-3.98c-0.16-1.21-0.35-2.55-1.06-3.57
				c-0.13-0.19-0.49-0.2-0.54,0.07c-0.22,1.23,0.04,2.47,0.22,3.69C85.64,84.15,85.94,85.81,86.95,86.73z"/>
		</g>
		<g>
			<g>
				<path class="st2" d="M101.2,63.99c-1.08-6.29,10.82-6.81,11.17-13.14c0.39-7.13-11.94-9.42-11.66-16.55c0.02-0.49-0.24-0.52,0,0
					c2.97,6.62,17.12,7.33,16.82,14.58C117.23,55.97,105.2,57.96,101.2,63.99C101.09,64.15,101.2,63.99,101.2,63.99z"/>
				<path class="st2" d="M79.44,63.99c1.08-6.29-10.82-6.81-11.17-13.14c-0.39-7.13,11.94-9.42,11.66-16.55
					c-0.02-0.49,0.24-0.52,0,0c-2.97,6.62-17.12,7.33-16.82,14.58C63.41,55.97,75.44,57.96,79.44,63.99
					C79.55,64.15,79.44,63.99,79.44,63.99z"/>
			</g>
			<g>
				<path class="st1" d="M80.43,66.96c2.15-5.95,5.78-11.59,8.76-17.17c3.37-6.29,6.5-12.74,9.8-19.07c0.23-0.44,0.79-0.5,0.7,0.04
					c-0.8,4.48-1.99,8.41-3.68,12.41c-0.86,2.05-1.86,4.12-3,6.3c-1.61,3.08-3.43,6.36-5.44,9.41c-2.09,3.16-4.39,6.07-6.91,8.26
					C80.53,67.25,80.35,67.17,80.43,66.96L80.43,66.96z"/>
			</g>
		</g>
	</g>
</g>
<g>
	<text transform="matrix(0.8972 0 0 1 583.6506 152.4919)"><tspan x="0" y="0" class="st3 st4">GR</tspan><tspan x="169.69" y="0" class="st2 st3 st4">I</tspan><tspan x="205.09" y="0" class="st3 st4">MM</tspan></text>
	<path class="st1" d="M761.59,45.07c-0.64-0.4-1.27,0.88-1.4,1.25c-1.14,3.25-3.19,5.9-4.02,6.75c-0.65,0.67,3.04,3.8,3.82,2.17
		c0.59-1.25,2.05-3.79,2.38-7.82C762.45,46.59,762.36,45.55,761.59,45.07z"/>
	<path class="st1" d="M748.56,53.45c-2.05-1.73-3.63-6.11-4.45-7.28c-0.31-0.45-1.84-1.57-2.02,1.65c-0.13,2.43,0.5,4.76,1.65,6.91
		c0.26,0.48,0.61,1.02,1.08,1.31C745.79,56.6,749.26,54.04,748.56,53.45z"/>
	<path class="st2" d="M761.74,56.16c-1.37-2.48-4.33-3.36-6.95-3.71c-3.02-0.4-6.43-0.07-9.07,1.56c-0.73,0.45-1.37,1-1.89,1.63
		c-0.09,0.1-0.19,0.21-0.27,0.32c-1.25,1.54-1.68,3.6-1.03,5.48c0.36,1.03,1.01,1.91,1.81,2.64c-0.05,0.32-0.09,0.66,0.06,0.94
		c0.03,0.07,0.14,0.16,0.23,0.16c0.17,0,0.33-0.38,0.37,0c0.01,0.14,0.04,0.69,0.31,0.64c0.12-0.02,0.16-0.13,0.22-0.24
		c0.08-0.14,0.03-0.14,0.1,0c0.05,0.1,0.1,0.21,0.15,0.31c0.06,0.11,0.24,0.43,0.41,0.33c0.26-0.15,0.17-0.52,0.1-0.77
		c0.08,0.04,0.16,0.09,0.24,0.13c3.37,1.75,8.05,1.45,11.45-0.07c0.04-0.02,0.09-0.04,0.13-0.06c0,0.01,0,0.02,0,0.04
		c-0.02,0.17-0.12,0.78,0.23,0.73c0.28-0.04,0.34-0.54,0.41-0.74c0.14-0.38,0.2,0.07,0.23,0.22c0.03,0.13,0.16,0.17,0.27,0.13
		c0.14-0.04,0.18-0.27,0.22-0.38c0.03-0.12,0.06-0.23,0.09-0.35c0.01-0.05,0.02-0.09,0.03-0.14c0-0.02,0.2-0.53,0.3-0.19
		c0.1,0.33,0.34,0.21,0.51-0.04c0.22-0.33,0.19-0.77,0.21-1.17C762.37,61.55,763.11,58.66,761.74,56.16z"/>
	<g>
		<path class="st5" d="M759.69,128.79c-2.73,3.31-5.85,6.35-8.63,9.62c-3.04,3.57-5.17,8.13-8.78,11.24
			c-0.42,0.36-0.93,0.17-0.83-0.3c1.48-7.25,11.38-16.39,18.06-20.75C759.67,128.49,759.8,128.65,759.69,128.79L759.69,128.79z"/>
	</g>
	<g>
		<path class="st5" d="M743.34,139.3c2.82-3.55,5.58-6.53,9.12-9.36c3.31-2.65,8.23-4.53,10.22-8.41c0.23-0.46-0.15-0.9-0.63-0.82
			c-4.29,0.73-8.19,4.59-11.54,7.25c-3.49,2.77-6.52,6.67-7.91,10.91C742.47,139.28,743.07,139.65,743.34,139.3L743.34,139.3z"/>
	</g>
	<g>
		<path class="st5" d="M745.22,116.79c2.51-0.58,4.83-1.99,7.13-3.12c2.48-1.22,5.97-1.67,7.98-3.62c0.21-0.2,0.16-0.52-0.08-0.67
			c-2.35-1.59-5.31,0.04-7.54,1.17c-2.78,1.41-5.63,3.49-7.75,5.77C744.78,116.52,744.94,116.86,745.22,116.79L745.22,116.79z"/>
	</g>
	<g>
		<path class="st5" d="M746.07,106.12c2.11-3.43,4.39-6.5,7.16-9.42c2.14-2.26,5.75-3.86,6.49-7c0.1-0.41-0.32-0.67-0.67-0.66
			c-3.25,0.06-5.92,3.71-8.06,5.92c-2.91,3-4.8,6.87-5.38,10.98C745.57,106.16,745.93,106.34,746.07,106.12L746.07,106.12z"/>
	</g>
	<g>
		<path class="st5" d="M743.03,90.47c3.41-1.23,12.34-6.18,15.06-8.78c0.22-0.21,6.55-6.99,1.16-4.39
			C755.57,79.08,743.03,90.47,743.03,90.47z"/>
	</g>
	<g>
		<path class="st5" d="M744.98,78.11c1.83-0.86,3.83-1.45,5.73-2.14c0.93-0.34,1.9-0.53,2.85-0.81c0.76-0.23,1.36-0.87,2.09-1.18
			c0.32-0.14,0.2-0.64-0.1-0.71c-1.15-0.27-1.86-0.65-3.05-0.5c-1.08,0.14-2.14,0.58-3.15,0.98c-2.04,0.81-3.43,2.21-4.73,3.91
			C744.41,77.92,744.67,78.26,744.98,78.11L744.98,78.11z"/>
	</g>
	<g>
		<path class="st5" d="M743.04,125.3c2.51-0.58,4.83-1.99,7.13-3.12c2.48-1.22,5.97-1.67,7.98-3.62c0.21-0.2,0.16-0.52-0.08-0.67
			c-2.35-1.59-9.21,3.45-11.43,4.58c-2.78,1.41-1.73,0.08-3.85,2.36C742.6,125.02,742.76,125.36,743.04,125.3L743.04,125.3z"/>
	</g>
</g>
<g>
	<text transform="matrix(0.8972 0 0 1 180.5275 152.5853)"><tspan x="0" y="0" class="st3 st4">NATAL</tspan><tspan x="399.31" y="0" class="st2 st3 st4">I</tspan></text>
	<path class="st1" d="M544.63,44.97c-0.64-0.4-1.27,0.88-1.4,1.25c-1.14,3.25-3.19,5.9-4.02,6.75c-0.65,0.67,3.04,3.8,3.82,2.17
		c0.59-1.25,2.05-3.79,2.38-7.82C545.48,46.5,545.39,45.45,544.63,44.97z"/>
	<path class="st1" d="M531.6,53.35c-2.05-1.73-3.63-6.11-4.45-7.28c-0.31-0.45-1.84-1.57-2.02,1.65c-0.13,2.43,0.5,4.76,1.65,6.91
		c0.26,0.48,0.61,1.02,1.08,1.31C528.82,56.51,532.3,53.95,531.6,53.35z"/>
	<path class="st2" d="M544.77,56.07c-1.37-2.48-4.33-3.36-6.95-3.71c-3.02-0.4-6.43-0.07-9.07,1.56c-0.73,0.45-1.37,1-1.89,1.63
		c-0.09,0.1-0.19,0.21-0.27,0.32c-1.25,1.54-1.68,3.6-1.03,5.48c0.36,1.03,1.01,1.91,1.81,2.64c-0.05,0.32-0.09,0.66,0.06,0.94
		c0.03,0.07,0.14,0.16,0.23,0.16c0.17,0,0.33-0.38,0.37,0c0.01,0.14,0.04,0.69,0.31,0.64c0.12-0.02,0.16-0.13,0.22-0.24
		c0.08-0.14,0.03-0.13,0.1,0c0.05,0.1,0.1,0.21,0.15,0.31c0.06,0.11,0.24,0.43,0.41,0.33c0.26-0.15,0.17-0.52,0.1-0.77
		c0.08,0.04,0.16,0.09,0.24,0.13c3.37,1.75,8.05,1.45,11.45-0.07c0.04-0.02,0.09-0.04,0.13-0.06c0,0.01,0,0.02,0,0.04
		c-0.02,0.17-0.12,0.78,0.23,0.73c0.28-0.04,0.34-0.54,0.41-0.74c0.14-0.38,0.2,0.07,0.23,0.22c0.03,0.13,0.16,0.17,0.27,0.13
		c0.14-0.04,0.18-0.27,0.22-0.38c0.03-0.12,0.06-0.23,0.09-0.35c0.01-0.05,0.02-0.09,0.03-0.14c0-0.02,0.2-0.53,0.3-0.19
		c0.1,0.33,0.34,0.21,0.51-0.04c0.22-0.33,0.19-0.77,0.21-1.17C545.41,61.45,546.15,58.56,544.77,56.07z"/>
	<g>
		<path class="st5" d="M543.83,130.17c-2.78,3.37-5.95,6.46-8.79,9.79c-3.09,3.64-5.27,8.28-8.93,11.44
			c-0.43,0.37-0.94,0.18-0.84-0.31c1.51-7.38,11.58-16.68,18.38-21.12C543.82,129.87,543.94,130.04,543.83,130.17L543.83,130.17z"/>
	</g>
	<g>
		<path class="st5" d="M527.19,140.88c2.87-3.61,5.68-6.65,9.28-9.53c3.36-2.69,8.38-4.61,10.4-8.56c0.24-0.46-0.15-0.91-0.64-0.83
			c-4.37,0.74-8.34,4.67-11.74,7.38c-3.55,2.82-6.63,6.79-8.06,11.1C526.3,140.85,526.91,141.23,527.19,140.88L527.19,140.88z"/>
	</g>
	<g>
		<path class="st5" d="M529.1,117.97c2.55-0.59,4.92-2.02,7.26-3.17c2.53-1.25,6.08-1.7,8.12-3.68c0.21-0.2,0.16-0.53-0.08-0.69
			c-2.39-1.62-5.41,0.04-7.67,1.19c-2.83,1.43-5.73,3.55-7.89,5.87C528.65,117.69,528.81,118.03,529.1,117.97L529.1,117.97z"/>
	</g>
	<g>
		<path class="st5" d="M529.97,107.1c2.14-3.49,4.46-6.61,7.28-9.59c2.18-2.3,5.86-3.93,6.61-7.13c0.1-0.42-0.33-0.68-0.68-0.68
			c-3.31,0.06-6.02,3.77-8.21,6.02c-2.96,3.05-4.88,6.99-5.48,11.18C529.46,107.15,529.82,107.33,529.97,107.1L529.97,107.1z"/>
	</g>
	<g>
		<path class="st5" d="M528.58,92.88c3.47-1.25,12.56-6.29,15.32-8.93c0.23-0.22,6.66-7.11,1.19-4.46
			C541.35,81.3,528.58,92.88,528.58,92.88z"/>
	</g>
	<g>
		<path class="st5" d="M530.67,81.56c1.83-0.86,3.83-1.45,5.73-2.14c0.93-0.34,1.9-0.53,2.85-0.81c0.76-0.23,1.36-0.87,2.09-1.18
			c0.32-0.14,0.2-0.64-0.1-0.71c-1.15-0.27-1.86-0.65-3.05-0.5c-1.08,0.14-2.14,0.58-3.15,0.98c-2.04,0.81-3.43,2.21-4.73,3.91
			C530.1,81.36,530.36,81.7,530.67,81.56L530.67,81.56z"/>
	</g>
	<g>
		<path class="st5" d="M526.89,126.62c2.55-0.59,4.92-2.02,7.26-3.17c2.53-1.25,6.08-1.7,8.12-3.68c0.21-0.2,0.16-0.53-0.08-0.69
			c-2.39-1.62-9.38,3.52-11.64,4.66c-2.83,1.43-1.76,0.08-3.92,2.4C526.44,126.34,526.6,126.69,526.89,126.62L526.89,126.62z"/>
	</g>
</g>
</svg>
